<svg width="29" height="37" viewBox="0 0 29 37" fill="none" xmlns="http://www.w3.org/2000/svg">
<ellipse cx="14.5211" cy="14.4976" rx="7.73121" ry="7.24199" fill="#FF3131"/>
<path d="M14.5002 0C6.49199 0 0 6.51118 0 14.5431C0 18.1288 1.29979 21.4057 3.4448 23.9415L14.5002 37L25.5552 23.9411C27.7002 21.4057 29 18.1284 29 14.5426C29.0004 6.51118 22.5084 0 14.5002 0ZM14.5002 20.0232C11.2067 20.0232 8.53698 17.3456 8.53698 14.0423C8.53698 10.739 11.2067 8.06148 14.5002 8.06148C17.7937 8.06148 20.4634 10.739 20.4634 14.0423C20.4634 17.3456 17.7937 20.0232 14.5002 20.0232Z" fill="#FF3131"/>
<path d="M11.372 15.304C10.412 14.984 9.716 14.596 9.284 14.14C8.86 13.684 8.648 13.132 8.648 12.484C8.648 11.756 8.892 11.18 9.38 10.756C9.868 10.332 10.552 10.12 11.432 10.12C12.176 10.12 12.824 10.204 13.376 10.372C13.568 10.428 13.72 10.544 13.832 10.72C13.952 10.888 14.012 11.076 14.012 11.284V11.392C14.012 11.544 13.944 11.664 13.808 11.752C13.672 11.832 13.532 11.844 13.388 11.788C12.788 11.556 12.176 11.44 11.552 11.44C11.152 11.44 10.848 11.532 10.64 11.716C10.432 11.9 10.328 12.156 10.328 12.484C10.328 13.06 10.704 13.472 11.456 13.72C12.536 14.064 13.284 14.456 13.7 14.896C14.124 15.336 14.336 15.904 14.336 16.6C14.336 18.28 13.3 19.12 11.228 19.12C10.58 19.12 9.992 19.02 9.464 18.82C9.272 18.748 9.12 18.624 9.008 18.448C8.904 18.272 8.852 18.076 8.852 17.86V17.716C8.852 17.564 8.916 17.456 9.044 17.392C9.172 17.32 9.304 17.316 9.44 17.38C9.968 17.644 10.524 17.776 11.108 17.776C12.124 17.776 12.632 17.392 12.632 16.624C12.632 16.312 12.536 16.056 12.344 15.856C12.152 15.648 11.828 15.464 11.372 15.304ZM18.242 15.304C17.282 14.984 16.586 14.596 16.154 14.14C15.73 13.684 15.518 13.132 15.518 12.484C15.518 11.756 15.762 11.18 16.25 10.756C16.738 10.332 17.422 10.12 18.302 10.12C19.046 10.12 19.694 10.204 20.246 10.372C20.438 10.428 20.59 10.544 20.702 10.72C20.822 10.888 20.882 11.076 20.882 11.284V11.392C20.882 11.544 20.814 11.664 20.678 11.752C20.542 11.832 20.402 11.844 20.258 11.788C19.658 11.556 19.046 11.44 18.422 11.44C18.022 11.44 17.718 11.532 17.51 11.716C17.302 11.9 17.198 12.156 17.198 12.484C17.198 13.06 17.574 13.472 18.326 13.72C19.406 14.064 20.154 14.456 20.57 14.896C20.994 15.336 21.206 15.904 21.206 16.6C21.206 18.28 20.17 19.12 18.098 19.12C17.45 19.12 16.862 19.02 16.334 18.82C16.142 18.748 15.99 18.624 15.878 18.448C15.774 18.272 15.722 18.076 15.722 17.86V17.716C15.722 17.564 15.786 17.456 15.914 17.392C16.042 17.32 16.174 17.316 16.31 17.38C16.838 17.644 17.394 17.776 17.978 17.776C18.994 17.776 19.502 17.392 19.502 16.624C19.502 16.312 19.406 16.056 19.214 15.856C19.022 15.648 18.698 15.464 18.242 15.304Z" fill="white"/>
</svg>